<?xml version="1.0" encoding="UTF-8" standalone="no" ?>
<!DOCTYPE svg PUBLIC "-//W3C//DTD SVG 1.1//EN" "http://www.w3.org/Graphics/SVG/1.1/DTD/svg11.dtd">
<svg xmlns="http://www.w3.org/2000/svg" xmlns:xlink="http://www.w3.org/1999/xlink" version="1.1" width="400" height="400" viewBox="0 0 400 400" xml:space="preserve">
<desc>Created with Fabric.js 3.6.2</desc>
<defs>
</defs>
<g transform="matrix(9.09 0 0 9.09 200 200)" id="Icons"  >
<path style="stroke: none; stroke-width: 1; stroke-dasharray: none; stroke-linecap: butt; stroke-dashoffset: 0; stroke-linejoin: miter; stroke-miterlimit: 4; fill: rgb(74,85,104); fill-rule: nonzero; opacity: 1;"  transform=" translate(-12, -11.5)" d="M 22 4 H 16 V 3 a 3 3 0 0 0 -3 -3 H 11 A 3 3 0 0 0 8 3 V 4 H 2 A 1 1 0 0 0 2 6 H 4 V 20 a 3 3 0 0 0 3 3 H 17 a 3 3 0 0 0 3 -3 V 6 h 2 a 1 1 0 0 0 0 -2 Z M 10 3 a 1 1 0 0 1 1 -1 h 2 a 1 1 0 0 1 1 1 V 4 H 10 Z M 9 18 a 1 1 0 0 1 -2 0 V 10 a 1 1 0 0 1 2 0 Z m 4 0 a 1 1 0 0 1 -2 0 V 10 a 1 1 0 0 1 2 0 Z m 4 0 a 1 1 0 0 1 -2 0 V 10 a 1 1 0 0 1 2 0 Z" stroke-linecap="round" />
</g>
</svg>